<?xml version="1.0" encoding="UTF-8"?>
<svg version="1.1" xmlns="http://www.w3.org/2000/svg" width="512" height="512">
<path d="M0 0 C1.10988281 0.25394531 2.21976563 0.50789063 3.36328125 0.76953125 C21.49230105 5.85969863 37.97777373 18.33048134 52.01953125 30.44921875 C53.88096383 32.04229277 55.76699006 33.60757207 57.6875 35.12890625 C81.60766671 54.48323033 91.28490401 91.22196666 94.4777832 120.4609375 C97.11326325 148.69404554 90.03187125 173.52147061 81 200 C80.01 200 79.02 200 78 200 C77.82984375 200.59208252 77.6596875 201.18416504 77.484375 201.79418945 C69.76496335 228.14232755 59.20612451 253.45072248 42 275 C41.33589111 275.84522217 40.67178223 276.69044434 39.98754883 277.5612793 C34.80199797 284.05288057 29.26133293 290.05222609 23.36108398 295.8996582 C21.92775446 297.322172 20.50556285 298.75520591 19.08398438 300.18945312 C12.29971638 306.95483658 5.60035758 312.83720232 -2.875 317.375 C-3.80054688 317.87773437 -4.72609375 318.38046875 -5.6796875 318.8984375 C-8 320 -8 320 -10 320 C-6.79646591 324.49305794 -3.14744373 327.2685852 1.3125 330.375 C14.41841699 339.7897283 21.05644503 349.78535734 27.0625 364.8125 C27.51858643 365.94163818 27.97467285 367.07077637 28.44458008 368.23413086 C32.62482555 378.74757106 36.43579024 389.38977123 40.1875 400.0625 C40.47948273 400.89198151 40.77146545 401.72146301 41.07229614 402.57608032 C41.90050846 404.93584878 42.72314921 407.29746039 43.54296875 409.66015625 C43.79241241 410.37351135 44.04185608 411.08686646 44.29885864 411.82183838 C46 416.76586842 46 416.76586842 46 419 C-10.76 419 -67.52 419 -126 419 C-122.61107924 406.57395722 -122.61107924 406.57395722 -120.46875 400.40234375 C-120.23662811 399.7332901 -120.00450623 399.06423645 -119.76535034 398.37490845 C-101.68382956 346.5037564 -101.68382956 346.5037564 -90 337 C-89.20577637 336.35272949 -89.20577637 336.35272949 -88.39550781 335.69238281 C-85.66702763 333.49047893 -82.90200787 331.36872008 -80.078125 329.2890625 C-74.27173201 325.32815011 -74.27173201 325.32815011 -70 320 C-71.175625 319.690625 -71.175625 319.690625 -72.375 319.375 C-84.06028461 314.94265066 -92.22968518 306.57816741 -101 298 C-101.63083496 297.38962891 -102.26166992 296.77925781 -102.91162109 296.15039062 C-110.13494035 289.15391321 -117.07047034 282.15172816 -123 274 C-123.69295166 273.08033447 -123.69295166 273.08033447 -124.39990234 272.14208984 C-139.74360191 251.66286902 -148.70428563 228.2333388 -157.15893555 204.29296875 C-157.94629538 202.01420141 -157.94629538 202.01420141 -159 200 C-159.66 200 -160.32 200 -161 200 C-168.98613065 175.43221106 -168.98613065 175.43221106 -172 163 C-172.44859375 161.26169922 -172.44859375 161.26169922 -172.90625 159.48828125 C-178.67089828 134.80170877 -174.11601884 107.95363015 -167 84 C-166.80100098 83.31953613 -166.60200195 82.63907227 -166.39697266 81.93798828 C-160.14379533 61.32452494 -148.02331093 44.13592902 -132 30 C-131.04351562 29.13246094 -130.08703125 28.26492187 -129.1015625 27.37109375 C-121.69835752 20.9794378 -113.4080043 15.94244777 -105 11 C-104.35981934 10.6189209 -103.71963867 10.2378418 -103.06005859 9.84521484 C-94.01102133 4.51387237 -85.35724835 1.16124033 -75 -1 C-73.7625 -1.29777344 -72.525 -1.59554687 -71.25 -1.90234375 C-48.51117934 -6.90499634 -22.46611396 -5.47501952 0 0 Z " fill="#FDDCA5" transform="translate(296,93)"/>
<path d="M0 0 C1.10988281 0.25394531 2.21976563 0.50789063 3.36328125 0.76953125 C21.49230105 5.85969863 37.97777373 18.33048134 52.01953125 30.44921875 C53.88096383 32.04229277 55.76699006 33.60757207 57.6875 35.12890625 C81.60766671 54.48323033 91.28490401 91.22196666 94.4777832 120.4609375 C97.09470677 148.49525551 90.29875208 172.74470001 81 199 C77.37 198.34 73.74 197.68 70 197 C69.82871582 195.60354248 69.65743164 194.20708496 69.48095703 192.76831055 C68.83930016 187.54395477 68.19344913 182.32012433 67.54638672 177.09643555 C67.26791388 174.84364514 66.99055 172.59071735 66.71435547 170.33764648 C66.31515516 167.08279488 65.911853 163.82847264 65.5078125 160.57421875 C65.3868924 159.58105148 65.26597229 158.58788422 65.14138794 157.56462097 C64.3205057 150.99497908 63.25028098 144.5014313 62 138 C61.40832031 139.0828125 60.81664062 140.165625 60.20703125 141.28125 C59.40983957 142.68805885 58.61160814 144.09427887 57.8125 145.5 C57.23145508 146.57314453 57.23145508 146.57314453 56.63867188 147.66796875 C55.52865524 149.5944439 54.47093529 151.33188143 53 153 C49.63385881 153.69748872 48.0720845 153.02544159 44.8125 151.875 C41.32672147 149.55114765 40.82544664 148.04468852 40 144 C40 142.68 40 141.36 40 140 C29.75126742 142.40856595 19.70163607 145.40620982 9.625 148.4375 C6.43006306 149.39578769 3.23466702 150.35253478 0.0390625 151.30859375 C-1.11163727 151.6531813 -1.11163727 151.6531813 -2.2855835 152.00473022 C-9.17372806 154.06259494 -16.08125922 156.04757092 -23 158 C-23.4915964 153.18212541 -23.84293146 148.79987726 -23 144 C-20.23477715 140.78916728 -16.87917052 139.55951482 -13 138 C-10.62346179 136.87825309 -8.24846271 135.75323967 -5.875 134.625 C-3.91925226 133.74423601 -1.96182653 132.86713962 0 132 C-0.69892724 128.45285236 -2.12888704 125.5808518 -3.80078125 122.38671875 C-4.64866211 120.7615332 -4.64866211 120.7615332 -5.51367188 119.10351562 C-6.10728516 117.97623047 -6.70089844 116.84894531 -7.3125 115.6875 C-7.89451172 114.57181641 -8.47652344 113.45613281 -9.07617188 112.30664062 C-11.952855 106.81064466 -14.86988943 101.35596698 -18 96 C-19.80503912 98.70755868 -21.17362008 101.30564429 -22.57421875 104.234375 C-23.07405273 105.27730713 -23.57388672 106.32023926 -24.08886719 107.39477539 C-24.61641602 108.50199951 -25.14396484 109.60922363 -25.6875 110.75 C-26.22407227 111.87204834 -26.76064453 112.99409668 -27.31347656 114.15014648 C-31.25803232 122.41076905 -35.16218341 130.6892352 -39 139 C-39.66 139 -40.32 139 -41 139 C-43.52879667 133.68068878 -46.05559543 128.36043491 -48.58056641 123.03930664 C-49.43939567 121.23012821 -50.29876548 119.42120626 -51.15869141 117.61254883 C-52.39628824 115.00930324 -53.63192331 112.40513435 -54.8671875 109.80078125 C-55.25059296 108.99538406 -55.63399841 108.18998688 -56.02902222 107.36018372 C-57.80429562 103.61267383 -59.52460465 99.87886197 -61 96 C-65.94494573 102.99124679 -69.9626607 110.32968184 -73.875 117.9375 C-74.76445312 119.6400293 -74.76445312 119.6400293 -75.671875 121.37695312 C-78.7014133 126.44211883 -78.7014133 126.44211883 -80 132 C-68.57346589 138.14186936 -68.57346589 138.14186936 -57 144 C-57 148.62 -57 153.24 -57 158 C-71.8876209 153.94602888 -86.6824936 149.63453796 -101.4375 145.125 C-102.2457019 144.87857758 -103.05390381 144.63215515 -103.88659668 144.37826538 C-106.19465233 143.67378222 -108.50180968 142.96644701 -110.80859375 142.2578125 C-111.85541573 141.93791603 -111.85541573 141.93791603 -112.92338562 141.61155701 C-117.7675669 140.11621655 -117.7675669 140.11621655 -120 139 C-119.938125 139.70125 -119.87625 140.4025 -119.8125 141.125 C-120.06117546 144.93802367 -120.78966666 146.85194948 -123 150 C-125.88842817 151.66443112 -128.86370498 152.88224286 -132 154 C-133.31352171 151.87562549 -134.62585713 149.75053408 -135.9375 147.625 C-136.31068359 147.02171875 -136.68386719 146.4184375 -137.06835938 145.796875 C-139.88671875 141.2265625 -139.88671875 141.2265625 -141 139 C-144.20788041 150.93204865 -145.62132906 163.0821375 -147.1875 175.3125 C-147.46230711 177.42130008 -147.73769319 179.5300248 -148.01367188 181.63867188 C-148.6824574 186.75827041 -149.34340632 191.87882418 -150 197 C-151.423125 197.433125 -151.423125 197.433125 -152.875 197.875 C-156.05211578 198.76825109 -156.05211578 198.76825109 -158 201 C-158.99 200.67 -159.98 200.34 -161 200 C-161.91967773 198.10498047 -161.91967773 198.10498047 -162.68359375 195.6171875 C-162.96944336 194.70461182 -163.25529297 193.79203613 -163.54980469 192.85180664 C-163.84274414 191.86946045 -164.13568359 190.88711426 -164.4375 189.875 C-164.74461914 188.8739624 -165.05173828 187.8729248 -165.36816406 186.84155273 C-167.77085867 178.94145734 -170.05422833 171.02630816 -172 163 C-172.44859375 161.26169922 -172.44859375 161.26169922 -172.90625 159.48828125 C-178.67089828 134.80170877 -174.11601884 107.95363015 -167 84 C-166.80100098 83.31953613 -166.60200195 82.63907227 -166.39697266 81.93798828 C-160.14379533 61.32452494 -148.02331093 44.13592902 -132 30 C-131.04351562 29.13246094 -130.08703125 28.26492187 -129.1015625 27.37109375 C-121.69835752 20.9794378 -113.4080043 15.94244777 -105 11 C-104.35981934 10.6189209 -103.71963867 10.2378418 -103.06005859 9.84521484 C-94.01102133 4.51387237 -85.35724835 1.16124033 -75 -1 C-73.7625 -1.29777344 -72.525 -1.59554687 -71.25 -1.90234375 C-48.51117934 -6.90499634 -22.46611396 -5.47501952 0 0 Z " fill="#57301F" transform="translate(296,93)"/>
<path d="M0 0 C0.59425781 0.33773438 1.18851563 0.67546875 1.80078125 1.0234375 C15.79979133 8.55634184 31.7079255 8.69225188 46.9375 5.046875 C50.82404386 3.71831154 54.37432005 1.9163651 58 0 C73.86231178 11.70913371 86.78405366 21.34885906 94.5625 40.0625 C95.0584668 41.23538574 95.55443359 42.40827148 96.06542969 43.61669922 C102.13437351 58.17818429 107.23529733 73.1252786 112.359375 88.0390625 C112.62751511 88.81488174 112.89565521 89.59070099 113.17192078 90.39002991 C115 95.76289628 115 95.76289628 115 98 C58.24 98 1.48 98 -57 98 C-53.61107924 85.57395722 -53.61107924 85.57395722 -51.46875 79.40234375 C-51.23662811 78.7332901 -51.00450623 78.06423645 -50.76535034 77.37490845 C-32.68904134 25.51870764 -32.68904134 25.51870764 -21 16 C-20.48115234 15.57380371 -19.96230469 15.14760742 -19.42773438 14.70849609 C-15.70610857 11.67893526 -11.87904201 8.82425803 -8 6 C-6.39419699 4.79384212 -4.78973543 3.58589297 -3.1875 2.375 C-2.135625 1.59125 -1.08375 0.8075 0 0 Z " fill="#F62317" transform="translate(227,414)"/>
<path d="M0 0 C6.19000253 3.90548398 10.9169745 8.26072314 14 15 C14 15.66 14 16.32 14 17 C11.35261084 18.4606285 10.10551666 19 7 19 C6.08815936 17.58158123 5.17993765 16.16066547 4.29296875 14.7265625 C0.53986526 9.71486539 -4.99514064 6.50121484 -11 5 C-10.175 5.9075 -9.35 6.815 -8.5 7.75 C-4.9172719 12.78629207 -5.00002073 18.05657481 -6 24 C-7.7160043 28.13731546 -10.12735252 30.38518018 -13.75 32.9375 C-19.37899698 34.77774901 -23.93919851 35.01095922 -29.3125 32.375 C-33.97056618 28.25856943 -36.5741221 24.42772465 -37.109375 18.08984375 C-36.8505311 13.14407637 -34.70002512 9.05003769 -32 5 C-40.04281656 6.80963373 -45.44905634 13.27558935 -51 19 C-53.475 18.01 -53.475 18.01 -56 17 C-54.99277475 10.45303585 -50.27899889 5.72369653 -45.36328125 1.6796875 C-32.17567976 -7.69331852 -13.89335765 -8.32340337 0 0 Z " fill="#11100D" transform="translate(226,257)"/>
<path d="M0 0 C0.8751123 0.01168213 1.75022461 0.02336426 2.65185547 0.03540039 C14.17500971 0.42632271 21.75537676 4.47145566 30.12890625 12.28125 C33.09244644 15.5653249 35.1875 18.05347286 35.1875 22.5625 C33.2075 23.2225 31.2275 23.8825 29.1875 24.5625 C28.66542969 23.91023438 28.14335937 23.25796875 27.60546875 22.5859375 C22.15271755 16.1113923 16.86904033 12.09457275 9.1875 8.5625 C9.1875 9.2225 9.1875 9.8825 9.1875 10.5625 C10.1775 10.8925 11.1675 11.2225 12.1875 11.5625 C15.1830082 16.40139786 16.79759081 21.12111397 15.78515625 26.83203125 C14.18999791 32.5236317 12.09076415 35.29365724 7.1875 38.5625 C2.09342137 40.26052621 -2.71436248 40.4343259 -7.5625 38.0625 C-11.57365738 35.43734894 -13.4853325 32.11390382 -14.8125 27.5625 C-15.71575285 22.11741911 -15.56045041 18.01794289 -12.3125 13.4375 C-11.4875 12.48875 -10.6625 11.54 -9.8125 10.5625 C-16.58807783 12.25639446 -22.41259242 16.10146809 -26.3125 21.9375 C-26.8075 22.80375 -27.3025 23.67 -27.8125 24.5625 C-30.19814077 23.98665568 -32.47932784 23.34022405 -34.8125 22.5625 C-32.7002302 14.49746986 -28.1623308 10.49828967 -21.484375 6.0546875 C-14.2312505 2.00396592 -8.38144035 -0.15027781 0 0 Z " fill="#0D0C0A" transform="translate(306.8125,251.4375)"/>
<path d="M0 0 C23.1 0 46.2 0 70 0 C70 2.31 70 4.62 70 7 C46.9 7 23.8 7 0 7 C0 4.69 0 2.38 0 0 Z " fill="#060605" transform="translate(221,361)"/>
<path d="M0 0 C2.31 0.33 4.62 0.66 7 1 C6.11035223 9.00682996 4.60795022 17.26530352 0 24 C-4.71355884 31.39129683 -4.71355884 31.39129683 -5 40 C-2.92092417 43.34962218 0.32213322 44.0098051 4 45 C6.32694964 45.37531446 8.65976685 45.71917202 11 46 C11 48.31 11 50.62 11 53 C3.53512789 53.60200582 -1.76645583 52.27571622 -8 48 C-11.70949201 43.73660195 -12.57484159 39.58856467 -12.55078125 34.0546875 C-11.73175028 29.51226043 -9.44232869 25.91383728 -7.14477539 21.98510742 C-3.19922566 15.03367524 -1.55448373 7.78264551 0 0 Z " fill="#090806" transform="translate(247,287)"/>
<path d="M0 0 C0 4.2309359 -2.40937622 5.97674113 -5.1875 8.875 C-5.99030396 9.72904419 -5.99030396 9.72904419 -6.80932617 10.6003418 C-11.26948414 15.31414577 -15.86098965 19.89435718 -20.4753418 24.45654297 C-24.00401437 27.9578698 -27.34514265 31.56180479 -30.57421875 35.34375 C-32.60972367 37.70828174 -34.69625701 39.89372069 -37 42 C-37.66 42 -38.32 42 -39 42 C-39 42.99 -39 43.98 -39 45 C-39.639375 45.12375 -40.27875 45.2475 -40.9375 45.375 C-41.618125 45.58125 -42.29875 45.7875 -43 46 C-43.495 46.99 -43.495 46.99 -44 48 C-56.89568768 56.27871308 -73.31259001 56.81132153 -88 53.8125 C-93.43411276 52.40490915 -97.47015504 50.28635811 -102 47 C-101.67 46.34 -101.34 45.68 -101 45 C-95.08255659 45.8223923 -89.50574648 47.52775213 -83.80859375 49.27148438 C-75.1135031 51.80324676 -68.44496099 51.21283854 -59.8125 48.6875 C-59.03197266 48.47416016 -58.25144531 48.26082031 -57.44726562 48.04101562 C-53.18776469 46.83072486 -49.76292635 45.38608296 -46 43 C-45.06365723 42.82198853 -45.06365723 42.82198853 -44.10839844 42.64038086 C-41.33965367 41.79943395 -40.08198917 40.42297731 -38.06640625 38.359375 C-37.33486328 37.61816406 -36.60332031 36.87695312 -35.84960938 36.11328125 C-34.71749023 34.94345703 -34.71749023 34.94345703 -33.5625 33.75 C-32.81162109 32.98558594 -32.06074219 32.22117187 -31.28710938 31.43359375 C-29.83140722 29.95100527 -28.37850142 28.4656648 -26.92871094 26.97729492 C-24.06143647 24.03779418 -21.15913668 21.1361582 -18.2265625 18.26171875 C-15.15197978 15.2396289 -12.2361698 12.15555996 -9.4375 8.875 C-6.53732184 5.50239463 -3.50352579 2.73445916 0 0 Z " fill="#FED199" transform="translate(329,367)"/>
<path d="M0 0 C2.26631975 2.0674048 3.01192431 3.03514296 4.03515625 6.05078125 C3.98395476 11.80241497 1.41989578 15.39097175 -1.5625 20.1875 C-2.67534944 22.0520906 -3.78604249 23.91796996 -4.89453125 25.78515625 C-5.43158691 26.67992676 -5.96864258 27.57469727 -6.52197266 28.49658203 C-11.82099912 36.77357597 -11.82099912 36.77357597 -14 46 C-15.375 47.5 -15.375 47.5 -17 49 C-17.66 49.99 -18.32 50.98 -19 52 C-21.625 53.1875 -21.625 53.1875 -24 54 C-22.54463475 49.29413735 -20.64181245 44.90105462 -18.515625 40.46875 C-18.17754822 39.75577759 -17.83947144 39.04280518 -17.4911499 38.30822754 C-16.41401034 36.03725984 -15.33246387 33.76843412 -14.25 31.5 C-9.28387377 21.08335784 -4.44938166 10.64961838 0 0 Z " fill="#603C2A" transform="translate(230,180)"/>
<path d="M0 0 C0.33 0 0.66 0 1 0 C1.08302368 1.17357056 1.08302368 1.17357056 1.16772461 2.37084961 C1.41958041 5.89342387 1.67844455 9.41544822 1.9375 12.9375 C2.02451172 14.16919922 2.11152344 15.40089844 2.20117188 16.66992188 C2.28818359 17.83974609 2.37519531 19.00957031 2.46484375 20.21484375 C2.543396 21.29886475 2.62194824 22.38288574 2.70288086 23.49975586 C2.73108434 25.93732551 2.73108434 25.93732551 4 27 C4.04063832 28.66617115 4.042721 30.33388095 4 32 C2.68 32 1.36 32 0 32 C-1.22366806 27.23157921 -1.14781343 22.57337599 -1.125 17.6875 C-1.12886719 16.87087891 -1.13273437 16.05425781 -1.13671875 15.21289062 C-1.12849806 10.05440865 -0.74025307 5.1053962 0 0 Z " fill="#EB382A" transform="translate(302,480)"/>
<path d="M0 0 C0.33 0.66 0.66 1.32 1 2 C-1.70139293 4.9469741 -3.74145563 6.85905954 -7.2890625 8.79296875 C-11.25095423 10.99639048 -14.18878874 13.81112748 -17.3125 17.0625 C-17.83650391 17.59166016 -18.36050781 18.12082031 -18.90039062 18.66601562 C-21.19936785 21.01209097 -23.1730453 23.25956795 -25 26 C-25.66 26 -26.32 26 -27 26 C-23.01502767 17.34034859 -15.43428732 11.61907253 -8 6 C-7.20207031 5.39414062 -6.40414062 4.78828125 -5.58203125 4.1640625 C-3.72826328 2.76635426 -1.86851412 1.37789868 0 0 Z " fill="#FE695D" transform="translate(223,417)"/>
<path d="M0 0 C0.33 0 0.66 0 1 0 C1.19493195 2.27020744 1.38070418 4.54120289 1.5625 6.8125 C1.66691406 8.07707031 1.77132812 9.34164063 1.87890625 10.64453125 C2 14 2 14 1 17 C0.93259135 18.56118428 0.91485544 20.1250252 0.9375 21.6875 C0.94652344 22.49574219 0.95554688 23.30398438 0.96484375 24.13671875 C0.97644531 24.75160156 0.98804688 25.36648438 1 26 C-0.32 26 -1.64 26 -3 26 C-3.09765625 19.84765625 -3.09765625 19.84765625 -3 18 C-2.67 17.67 -2.34 17.34 -2 17 C-1.599617 14.14471393 -1.2481773 11.30263513 -0.9375 8.4375 C-0.84662109 7.63119141 -0.75574219 6.82488281 -0.66210938 5.99414062 C-0.43752551 3.99652623 -0.21826764 1.9983144 0 0 Z " fill="#FB3D2E" transform="translate(210,486)"/>
<path d="M0 0 C0.66 0 1.32 0 2 0 C5 5.75 5 5.75 5 8 C-0.445 10.475 -0.445 10.475 -6 13 C-4.70639401 9.76598502 -3.44092886 6.7671601 -1.875 3.6875 C-1.52179688 2.99011719 -1.16859375 2.29273438 -0.8046875 1.57421875 C-0.53914063 1.05472656 -0.27359375 0.53523437 0 0 Z " fill="#F3D8A4" transform="translate(323,202)"/>
<path d="M0 0 C0.66 0 1.32 0 2 0 C4.31 4.29 6.62 8.58 9 13 C5.19758429 11.47903372 1.63525385 9.85989732 -2 8 C-2.20086443 4.28400809 -2.1519437 3.22791555 0 0 Z " fill="#F3E5AF" transform="translate(187,202)"/>
<path d="M0 0 C-1.36983503 3.16115776 -1.9890638 3.9927092 -5 6 C-5.33 5.01 -5.66 4.02 -6 3 C-8.95747404 3.96289852 -11.84081346 4.92966176 -14.6875 6.1875 C-17 7 -17 7 -20 6 C-19.34 6 -18.68 6 -18 6 C-18 5.34 -18 4.68 -18 4 C-16.10556877 1.85846905 -14.66218922 1.04704719 -11.80078125 0.84375 C-10.20769702 0.86427282 -8.61467929 0.91288974 -7.0234375 0.9921875 C-4.35439477 1.00249268 -2.8003467 0 0 0 Z " fill="#FDD29B" transform="translate(262,321)"/>
<path d="M0 0 C0.99 0.66 1.98 1.32 3 2 C-2.25366361 7.78196498 -7.78144837 12.79324565 -15 16 C-15.66 15.67 -16.32 15.34 -17 15 C-13.94215803 12.30618684 -11.54302587 10.24489402 -7.8125 8.5625 C-4.28363404 6.60201891 -3.57884326 4.6313395 -2 1 C-1.34 0.67 -0.68 0.34 0 0 Z " fill="#FF3D2F" transform="translate(227,414)"/>
<path d="M0 0 C0.33 0 0.66 0 1 0 C1.51018114 5.70309636 -0.2602194 9.7727971 -2.5 14.875 C-3.00080078 16.050625 -3.00080078 16.050625 -3.51171875 17.25 C-4.33156562 19.17078409 -5.16448161 21.08598082 -6 23 C-6.66 23 -7.32 23 -8 23 C-6.05797655 14.97928527 -3.33160505 7.54549287 0 0 Z " fill="#FF6D61" transform="translate(188,460)"/>
<path d="M0 0 C0.25523437 0.53753906 0.51046875 1.07507813 0.7734375 1.62890625 C2.80525641 5.5566581 5.21109067 9.26933208 7.5390625 13.02734375 C9.01887882 16.03841386 9.32747506 17.7070563 9 21 C3.35041151 14.54332744 0.60825478 8.51556695 0 0 Z " fill="#FFF0BE" transform="translate(262,301)"/>
<path d="M0 0 C1.29132785 3.87398355 0.41113572 6.81988786 -0.4375 10.6875 C-0.58509766 11.38939453 -0.73269531 12.09128906 -0.88476562 12.81445312 C-1.2495932 14.54444194 -1.62388689 16.27242963 -2 18 C-3.32 17.67 -4.64 17.34 -6 17 C-5.56532095 12.39240202 -5.29526648 10.16345582 -2 7 C-1.25613932 4.69011685 -0.57809297 2.35684056 0 0 Z " fill="#7B5B4C" transform="translate(389,243)"/>
<path d="M0 0 C0.66 0 1.32 0 2 0 C0.22089072 6.75052102 -1.70438191 13.40620337 -4 20 C-4.33 20 -4.66 20 -5 20 C-5.28307995 13.06454134 -3.78785025 7.31912724 -1 1 C-0.67 0.67 -0.34 0.34 0 0 Z " fill="#886B5D" transform="translate(384,263)"/>
<path d="M0 0 C0.33 1.32 0.66 2.64 1 4 C1.99 3.67 2.98 3.34 4 3 C3.68289062 3.51046875 3.36578125 4.0209375 3.0390625 4.546875 C1.66023727 7.80214659 1.5706427 10.72843132 1.375 14.25 C1.30023438 15.51328125 1.22546875 16.7765625 1.1484375 18.078125 C1.09945312 19.04234375 1.05046875 20.0065625 1 21 C0.67 21 0.34 21 0 21 C0 14.07 0 7.14 0 0 Z " fill="#A58B7E" transform="translate(121,220)"/>
<path d="M0 0 C0.33 0 0.66 0 1 0 C1.22127098 2.29045368 1.4266504 4.58244764 1.625 6.875 C1.74101562 8.15117187 1.85703125 9.42734375 1.9765625 10.7421875 C1.98429688 11.81726563 1.99203125 12.89234375 2 14 C1.34 14.66 0.68 15.32 0 16 C-0.91397824 10.31302429 -0.91397824 5.68697571 0 0 Z " fill="#F63326" transform="translate(210,486)"/>
<path d="M0 0 C1.48285242 0.95262034 2.96118201 1.91228405 4.4375 2.875 C5.67306641 3.67550781 5.67306641 3.67550781 6.93359375 4.4921875 C9 6 9 6 10 8 C9.01 8 8.02 8 7 8 C7 7.34 7 6.68 7 6 C6.21625 5.87625 5.4325 5.7525 4.625 5.625 C2 5 2 5 0 3 C0 2.01 0 1.02 0 0 Z " fill="#FE6256" transform="translate(288,417)"/>
<path d="M0 0 C0.33 0.66 0.66 1.32 1 2 C-0.62339805 3.70884005 -2.29319053 5.37446717 -4 7 C-4.66 7 -5.32 7 -6 7 C-4.60667426 3.63279613 -3.0210714 2.0140476 0 0 Z " fill="#FF5A4E" transform="translate(223,417)"/>
<path d="M0 0 C0.66 0.33 1.32 0.66 2 1 C0.68 3.64 -0.64 6.28 -2 9 C-2.66 9 -3.32 9 -4 9 C-3.46930939 5.17902761 -2.50298434 2.93828597 0 0 Z " fill="#EEEBBD" transform="translate(246,312)"/>
<path d="M0 0 C0.66 0 1.32 0 2 0 C1.34 2.64 0.68 5.28 0 8 C-0.66 7.67 -1.32 7.34 -2 7 C-2.125 4.625 -2.125 4.625 -2 2 C-1.34 1.34 -0.68 0.68 0 0 Z " fill="#826353" transform="translate(384,263)"/>
<path d="M0 0 C0.99 0.33 1.98 0.66 3 1 C1.25 2.5625 1.25 2.5625 -1 4 C-3.25 3.6875 -3.25 3.6875 -5 3 C-2.6875 1.4375 -2.6875 1.4375 0 0 Z " fill="#FFCD95" transform="translate(283,410)"/>
</svg>
